<?xml version='1.0' encoding='utf-8'?>
<svg xmlns:xlink="http://www.w3.org/1999/xlink" xmlns="http://www.w3.org/2000/svg" viewBox="0 0 800 600"><!--Generated with pygal 0.13.0 ©Kozea 2012 on 2013-04-03--><!--http://pygal.org--><!--http://github.com/Kozea/pygal--><defs><style type="text/css">.title{font-family:monospace;font-size:16px}.legends .legend text{font-family:monospace;font-size:14px}.axis text{font-family:monospace;font-size:10px}.series text{font-family:monospace;font-size:0px}#tooltip text{font-family:monospace;font-size:20px}text.no_data{font-size:64px}</style><style type="text/css">svg{background-color:#fdf6e3}svg path,svg line,svg rect,svg circle{-webkit-transition:500ms ease-in;-moz-transition:500ms ease-in;transition:500ms ease-in}.graph &gt; .background{fill:#fdf6e3}.plot &gt; .background{fill:#eee8d5}.graph{fill:#657b83}text.no_data{fill:#073642}.title{fill:#073642}.legends .legend text{fill:#657b83}.legends .legend:hover text{fill:#073642}.axis .line{stroke:#073642}.axis .guide.line{stroke:#073642}.axis .major.line{stroke:#657b83}.axis text.major{stroke:#073642;fill:#073642}.axis.y .guides:hover .guide.line,.line-graph .axis.x .guides:hover .guide.line,.stackedline-graph .axis.x .guides:hover .guide.line,.xy-graph .axis.x .guides:hover .guide.line{stroke:#073642}.axis .guides:hover text{fill:#073642}.reactive{fill-opacity:.6}.reactive.active,.active .reactive{fill-opacity:.9}.series text{fill:#073642}#tooltip rect{fill:#eee8d5;stroke:#073642}#tooltip text{fill:#073642}.color-0{stroke:#b58900;fill:#b58900}.color-1{stroke:#cb4b16;fill:#cb4b16}.color-2{stroke:#dc322f;fill:#dc322f}.color-3{stroke:#d33682;fill:#d33682}.color-4{stroke:#6c71c4;fill:#6c71c4}.color-5{stroke:#268bd2;fill:#268bd2}.color-6{stroke:#2aa198;fill:#2aa198}.color-7{stroke:#859900;fill:#859900}.color-8{stroke:#b58900;fill:#b58900}.color-9{stroke:#cb4b16;fill:#cb4b16}.color-10{stroke:#dc322f;fill:#dc322f}.color-11{stroke:#d33682;fill:#d33682}.color-12{stroke:#6c71c4;fill:#6c71c4}.color-13{stroke:#268bd2;fill:#268bd2}.color-14{stroke:#2aa198;fill:#2aa198}.color-15{stroke:#859900;fill:#859900}</style><style type="text/css">text.no_data{text-anchor:middle}.guide.line{fill-opacity:0}.centered{text-anchor:middle}.title{text-anchor:middle}.legends .legend text{fill-opacity:1}.axis.x text{text-anchor:middle}.axis.x:not(.web) text[transform]{text-anchor:start}.axis.y text{text-anchor:end}.axis.y .logarithmic text:not(.major){font-size:50%}.axis .guide.line{stroke-dasharray:4,4}.axis .major.guide.line{stroke-dasharray:6,6}.axis text.major{stroke-width:0.5px}.horizontal .axis.y .guide.line,.vertical .axis.x .guide.line{opacity:0}.axis.y .guides:hover .guide.line,.line-graph .axis.x .guides:hover .guide.line,.gauge-graph .axis.x .guides:hover .guide.line,.stackedline-graph .axis.x .guides:hover .guide.line,.xy-graph .axis.x .guides:hover .guide.line{opacity:1}.axis .guides:hover text{opacity:1}.nofill{fill:none}.dot{stroke-width:1px;fill-opacity:1}.dot.active{stroke-width:5px}.series text{stroke:none}.series text.active{opacity:1}#tooltip rect{fill-opacity:0.8}#tooltip text{fill-opacity:1}#tooltip text tspan.label{fill-opacity:.8}a:visited{fill:none}</style><script type="text/javascript">window.config = {"truncate_legend": null, "print_values": true, "tooltip_font_size": 20, "height": 600, "legend_at_bottom": false, "show_legend": false, "show_dots": true, "explicit_size": false, "legend_font_size": 14, "fill": true, "style": {"opacity": ".6", "foreground": "#657b83", "plot_background": "#eee8d5", "_colors": ["#b58900", "#cb4b16", "#dc322f", "#d33682", "#6c71c4", "#268bd2", "#2aa198", "#859900"], "foreground_light": "#073642", "transition": "500ms ease-in", "foreground_dark": "#073642", "colors": ".color-0 {\n  stroke: #b58900;\n  fill: #b58900;\n}\n\n.color-1 {\n  stroke: #cb4b16;\n  fill: #cb4b16;\n}\n\n.color-2 {\n  stroke: #dc322f;\n  fill: #dc322f;\n}\n\n.color-3 {\n  stroke: #d33682;\n  fill: #d33682;\n}\n\n.color-4 {\n  stroke: #6c71c4;\n  fill: #6c71c4;\n}\n\n.color-5 {\n  stroke: #268bd2;\n  fill: #268bd2;\n}\n\n.color-6 {\n  stroke: #2aa198;\n  fill: #2aa198;\n}\n\n.color-7 {\n  stroke: #859900;\n  fill: #859900;\n}\n\n.color-8 {\n  stroke: #b58900;\n  fill: #b58900;\n}\n\n.color-9 {\n  stroke: #cb4b16;\n  fill: #cb4b16;\n}\n\n.color-10 {\n  stroke: #dc322f;\n  fill: #dc322f;\n}\n\n.color-11 {\n  stroke: #d33682;\n  fill: #d33682;\n}\n\n.color-12 {\n  stroke: #6c71c4;\n  fill: #6c71c4;\n}\n\n.color-13 {\n  stroke: #268bd2;\n  fill: #268bd2;\n}\n\n.color-14 {\n  stroke: #2aa198;\n  fill: #2aa198;\n}\n\n.color-15 {\n  stroke: #859900;\n  fill: #859900;\n}\n", "background": "#fdf6e3", "opacity_hover": ".9"}, "zero": 0, "title": "Foo", "rounded_bars": null, "label_font_size": 10, "strict": false, "x_label_rotation": 0, "x_labels": ["C", "C++", "Java", "HTML", "XML", "Python", "PHP", "Javascript", "Perl", "Shell", "Objective-C", "Ruby", "Haskell", "Lua", "Assembly", "Common-Lisp", "Scala", "Visual Basic", "Arduino", "Erlang", "Go", "CoffeeScript", "Emacs-Lisp", "VimL"], "value_font_size": 0, "disable_xml_declaration": false, "css": ["style.css", "graph.css"], "human_readable": false, "y_label_rotation": 0, "pretty_print": false, "interpolate": null, "js": ["https://raw.github.com/Kozea/pygal.js/master/svg.jquery.js", "https://raw.github.com/Kozea/pygal.js/master/pygal-tooltips.js"], "y_labels": null, "interpolation_precision": 250, "no_data_font_size": 64, "logarithmic": false, "print_zeroes": false, "no_data_text": "No data", "legend_box_size": 12, "stroke": true, "include_x_axis": false, "range": null, "truncate_label": null, "order_min": null, "title_font_size": 16, "width": 800}</script><script type="text/javascript" xlink:href="https://raw.github.com/Kozea/pygal.js/master/svg.jquery.js"/><script type="text/javascript" xlink:href="https://raw.github.com/Kozea/pygal.js/master/pygal-tooltips.js"/></defs><g class="graph radar-graph vertical"><rect class="background" height="600" width="800" x="0" y="0"/><g class="plot" transform="translate(54, 46)"><rect class="background" height="514" width="726.0" x="0" y="0"/><g class="axis x web"><g class="guides"><path class="line" d="M363.000000 257.000000 L363.000000 19.037037"/><text x="363.0" y="5.14" transform="rotate(0.000000 363.000000 5.140000)">C</text></g><g class="guides"><path class="line" d="M363.000000 257.000000 L276.008043 27.145428"/><text x="270.927712895" y="13.7219213908" transform="rotate(-15.000000 270.927713 13.721921)">C++</text></g><g class="guides"><path class="line" d="M363.000000 257.000000 L194.944444 50.918029"/><text x="185.13" y="38.8828418029" transform="rotate(-30.000000 185.130000 38.882842)">Java</text></g><g class="guides"><path class="line" d="M363.000000 257.000000 L125.333554 88.734775"/><text x="111.453833661" y="78.9080860904" transform="rotate(-45.000000 111.453834 78.908086)">HTML</text></g><g class="guides"><path class="line" d="M363.000000 257.000000 L71.919239 138.018519"/><text x="54.9201228577" y="131.07" transform="rotate(-60.000000 54.920123 131.070000)">XML</text></g><g class="guides"><path class="line" d="M363.000000 257.000000 L38.341597 195.410653"/><text x="19.3815465559" y="191.8138353" transform="rotate(-75.000000 19.381547 191.813835)">Python</text></g><g class="guides"><path class="line" d="M363.000000 257.000000 L26.888889 257.000000"/><text x="7.26" y="257.0" transform="rotate(-90.000000 7.260000 257.000000)">PHP</text></g><g class="guides"><path class="line" d="M363.000000 257.000000 L38.341597 318.589347"/><text x="19.3815465559" y="322.1861647" transform="rotate(-285.000000 19.381547 322.186165)">Javascript</text></g><g class="guides"><path class="line" d="M363.000000 257.000000 L71.919239 375.981481"/><text x="54.9201228577" y="382.93" transform="rotate(-300.000000 54.920123 382.930000)">Perl</text></g><g class="guides"><path class="line" d="M363.000000 257.000000 L125.333554 425.265225"/><text x="111.453833661" y="435.09191391" transform="rotate(-315.000000 111.453834 435.091914)">Shell</text></g><g class="guides"><path class="line" d="M363.000000 257.000000 L194.944444 463.081971"/><text x="185.13" y="475.117158197" transform="rotate(-330.000000 185.130000 475.117158)">Objective-C</text></g><g class="guides"><path class="line" d="M363.000000 257.000000 L276.008043 486.854572"/><text x="270.927712895" y="500.278078609" transform="rotate(-345.000000 270.927713 500.278079)">Ruby</text></g><g class="guides"><path class="line" d="M363.000000 257.000000 L363.000000 494.962963"/><text x="363.0" y="508.86" transform="rotate(-360.000000 363.000000 508.860000)">Haskell</text></g><g class="guides"><path class="line" d="M363.000000 257.000000 L449.991957 486.854572"/><text x="455.072287105" y="500.278078609" transform="rotate(-375.000000 455.072287 500.278079)">Lua</text></g><g class="guides"><path class="line" d="M363.000000 257.000000 L531.055556 463.081971"/><text x="540.87" y="475.117158197" transform="rotate(-390.000000 540.870000 475.117158)">Assembly</text></g><g class="guides"><path class="line" d="M363.000000 257.000000 L600.666446 425.265225"/><text x="614.546166339" y="435.09191391" transform="rotate(-405.000000 614.546166 435.091914)">Common-Lisp</text></g><g class="guides"><path class="line" d="M363.000000 257.000000 L654.080761 375.981481"/><text x="671.079877142" y="382.93" transform="rotate(-420.000000 671.079877 382.930000)">Scala</text></g><g class="guides"><path class="line" d="M363.000000 257.000000 L687.658403 318.589347"/><text x="706.618453444" y="322.1861647" transform="rotate(-435.000000 706.618453 322.186165)">Visual Basic</text></g><g class="guides"><path class="line" d="M363.000000 257.000000 L699.111111 257.000000"/><text x="718.74" y="257.0" transform="rotate(-450.000000 718.740000 257.000000)">Arduino</text></g><g class="guides"><path class="line" d="M363.000000 257.000000 L687.658403 195.410653"/><text x="706.618453444" y="191.8138353" transform="rotate(-285.000000 706.618453 191.813835)">Erlang</text></g><g class="guides"><path class="line" d="M363.000000 257.000000 L654.080761 138.018519"/><text x="671.079877142" y="131.07" transform="rotate(-300.000000 671.079877 131.070000)">Go</text></g><g class="guides"><path class="line" d="M363.000000 257.000000 L600.666446 88.734775"/><text x="614.546166339" y="78.9080860904" transform="rotate(-315.000000 614.546166 78.908086)">CoffeeScript</text></g><g class="guides"><path class="line" d="M363.000000 257.000000 L531.055556 50.918029"/><text x="540.87" y="38.8828418029" transform="rotate(-330.000000 540.870000 38.882842)">Emacs-Lisp</text></g><g class="guides"><path class="line" d="M363.000000 257.000000 L449.991957 27.145428"/><text x="455.072287105" y="13.7219213908" transform="rotate(-345.000000 455.072287 13.721921)">VimL</text></g></g><g class="axis y web"><g class="guides"><path class="guide line" d="M363.000000 19.037037 L276.008043 27.145428 194.944444 50.918029 125.333554 88.734775 71.919239 138.018519 38.341597 195.410653 26.888889 257.000000 38.341597 318.589347 71.919239 375.981481 125.333554 425.265225 194.944444 463.081971 276.008043 486.854572 363.000000 494.962963 449.991957 486.854572 531.055556 463.081971 600.666446 425.265225 654.080761 375.981481 687.658403 318.589347 699.111111 257.000000 687.658403 195.410653 654.080761 138.018519 600.666446 88.734775 531.055556 50.918029 449.991957 27.145428 363.000000 19.037037 Z"/><text class="" x="358.0" y="19.037037037">50.0</text></g><g class="guides"><path class="guide line" d="M363.000000 66.629630 L293.406435 73.116343 228.555556 92.134423 172.866843 122.387820 130.135391 161.814815 103.273278 207.728523 94.111111 257.000000 103.273278 306.271477 130.135391 352.185185 172.866843 391.612180 228.555556 421.865577 293.406435 440.883657 363.000000 447.370370 432.593565 440.883657 497.444444 421.865577 553.133157 391.612180 595.864609 352.185185 622.726722 306.271477 631.888889 257.000000 622.726722 207.728523 595.864609 161.814815 553.133157 122.387820 497.444444 92.134423 432.593565 73.116343 363.000000 66.629630 Z"/><text class="" x="358.0" y="66.6296296296">40.0</text></g><g class="guides"><path class="guide line" d="M363.000000 114.222222 L310.804826 119.087257 262.166667 133.350817 220.400132 156.040865 188.351544 185.611111 168.204958 220.046392 161.333333 257.000000 168.204958 293.953608 188.351544 328.388889 220.400132 357.959135 262.166667 380.649183 310.804826 394.912743 363.000000 399.777778 415.195174 394.912743 463.833333 380.649183 505.599868 357.959135 537.648456 328.388889 557.795042 293.953608 564.666667 257.000000 557.795042 220.046392 537.648456 185.611111 505.599868 156.040865 463.833333 133.350817 415.195174 119.087257 363.000000 114.222222 Z"/><text class="" x="358.0" y="114.222222222">30.0</text></g><g class="guides"><path class="guide line" d="M363.000000 161.814815 L328.203217 165.058171 295.777778 174.567212 267.933422 189.693910 246.567696 209.407407 233.136639 232.364261 228.555556 257.000000 233.136639 281.635739 246.567696 304.592593 267.933422 324.306090 295.777778 339.432788 328.203217 348.941829 363.000000 352.185185 397.796783 348.941829 430.222222 339.432788 458.066578 324.306090 479.432304 304.592593 492.863361 281.635739 497.444444 257.000000 492.863361 232.364261 479.432304 209.407407 458.066578 189.693910 430.222222 174.567212 397.796783 165.058171 363.000000 161.814815 Z"/><text class="" x="358.0" y="161.814814815">20.0</text></g><g class="guides"><path class="major guide line" d="M363.000000 209.407407 L345.601609 211.029086 329.388889 215.783606 315.466711 223.346955 304.783848 233.203704 298.068319 244.682131 295.777778 257.000000 298.068319 269.317869 304.783848 280.796296 315.466711 290.653045 329.388889 298.216394 345.601609 302.970914 363.000000 304.592593 380.398391 302.970914 396.611111 298.216394 410.533289 290.653045 421.216152 280.796296 427.931681 269.317869 430.222222 257.000000 427.931681 244.682131 421.216152 233.203704 410.533289 223.346955 396.611111 215.783606 380.398391 211.029086 363.000000 209.407407 Z"/><text class="major" x="358.0" y="209.407407407">10.0</text></g><g class="guides"><path class="major guide line" d="M363.000000 257.000000 L363.000000 257.000000 363.000000 257.000000 363.000000 257.000000 363.000000 257.000000 363.000000 257.000000 363.000000 257.000000 363.000000 257.000000 363.000000 257.000000 363.000000 257.000000 363.000000 257.000000 363.000000 257.000000 363.000000 257.000000 363.000000 257.000000 363.000000 257.000000 363.000000 257.000000 363.000000 257.000000 363.000000 257.000000 363.000000 257.000000 363.000000 257.000000 363.000000 257.000000 363.000000 257.000000 363.000000 257.000000 363.000000 257.000000 363.000000 257.000000 Z"/><text class="major" x="358.0" y="257.0">0.0</text></g></g><g class="series serie-0 color-0"><path class="line reactive" d="M363.000000 114.222222 L328.203217 165.058171 228.555556 92.134423 125.333554 88.734775 130.135391 161.814815 135.739118 213.887457 161.333333 257.000000 135.739118 300.112543 217.459620 316.490741 234.660119 347.863221 278.972222 360.040986 328.203217 348.941829 363.000000 385.500000 397.796783 348.941829 447.027778 360.040986 491.339881 347.863221 479.432304 304.592593 525.329201 287.794673 497.444444 257.000000 525.329201 226.205327 520.183611 192.750000 481.833223 172.867388 430.222222 174.567212 409.975657 132.878531 Z"/></g></g><g class="plot overlay" transform="translate(54, 46)"><g class="series serie-0 color-0"><g class="dots"><circle class="dot reactive tooltip-trigger" cx="363.0" cy="114.222222222" r="2.5"/><desc class="value">30</desc><desc class="x ">363.0</desc><desc class="y ">114.222222222</desc></g><g class="dots"><circle class="dot reactive tooltip-trigger" cx="328.20321727" cy="165.05817135" r="2.5"/><desc class="value">20</desc><desc class="x ">328.20321727</desc><desc class="y ">165.05817135</desc></g><g class="dots"><circle class="dot reactive tooltip-trigger" cx="228.555555556" cy="92.1344231314" r="2.5"/><desc class="value">40</desc><desc class="x ">228.555555556</desc><desc class="y ">92.1344231314</desc></g><g class="dots"><circle class="dot reactive tooltip-trigger" cx="125.333554101" cy="88.7347752176" r="2.5"/><desc class="value">50</desc><desc class="x ">125.333554101</desc><desc class="y ">88.7347752176</desc></g><g class="dots"><circle class="dot reactive tooltip-trigger" cx="130.135391427" cy="161.814814815" r="2.5"/><desc class="value">40</desc><desc class="x ">130.135391427</desc><desc class="y ">161.814814815</desc></g><g class="dots"><circle class="dot reactive tooltip-trigger" cx="135.739118093" cy="213.887457209" r="2.5"/><desc class="value">35</desc><desc class="x ">135.739118093</desc><desc class="y ">213.887457209</desc></g><g class="dots"><circle class="dot reactive tooltip-trigger" cx="161.333333333" cy="257.0" r="2.5"/><desc class="value">30</desc><desc class="x ">161.333333333</desc><desc class="y ">257.0</desc></g><g class="dots"><circle class="dot reactive tooltip-trigger" cx="135.739118093" cy="300.112542791" r="2.5"/><desc class="value">35</desc><desc class="x top">135.739118093</desc><desc class="y top">300.112542791</desc></g><g class="dots"><circle class="dot reactive tooltip-trigger" cx="217.459619642" cy="316.490740741" r="2.5"/><desc class="value">25</desc><desc class="x top">217.459619642</desc><desc class="y top">316.490740741</desc></g><g class="dots"><circle class="dot reactive tooltip-trigger" cx="234.660119215" cy="347.863221382" r="2.5"/><desc class="value">27</desc><desc class="x top">234.660119215</desc><desc class="y top">347.863221382</desc></g><g class="dots"><circle class="dot reactive tooltip-trigger" cx="278.972222222" cy="360.040985543" r="2.5"/><desc class="value">25</desc><desc class="x top">278.972222222</desc><desc class="y top">360.040985543</desc></g><g class="dots"><circle class="dot reactive tooltip-trigger" cx="328.20321727" cy="348.94182865" r="2.5"/><desc class="value">20</desc><desc class="x top">328.20321727</desc><desc class="y top">348.94182865</desc></g><g class="dots"><circle class="dot reactive tooltip-trigger" cx="363.0" cy="385.5" r="2.5"/><desc class="value">27</desc><desc class="x top">363.0</desc><desc class="y top">385.5</desc></g><g class="dots"><circle class="dot reactive tooltip-trigger" cx="397.79678273" cy="348.94182865" r="2.5"/><desc class="value">20</desc><desc class="x left top">397.79678273</desc><desc class="y left top">348.94182865</desc></g><g class="dots"><circle class="dot reactive tooltip-trigger" cx="447.027777778" cy="360.040985543" r="2.5"/><desc class="value">25</desc><desc class="x left top">447.027777778</desc><desc class="y left top">360.040985543</desc></g><g class="dots"><circle class="dot reactive tooltip-trigger" cx="491.339880785" cy="347.863221382" r="2.5"/><desc class="value">27</desc><desc class="x left top">491.339880785</desc><desc class="y left top">347.863221382</desc></g><g class="dots"><circle class="dot reactive tooltip-trigger" cx="479.432304287" cy="304.592592593" r="2.5"/><desc class="value">20</desc><desc class="x left top">479.432304287</desc><desc class="y left top">304.592592593</desc></g><g class="dots"><circle class="dot reactive tooltip-trigger" cx="525.329201362" cy="287.794673422" r="2.5"/><desc class="value">25</desc><desc class="x left top">525.329201362</desc><desc class="y left top">287.794673422</desc></g><g class="dots"><circle class="dot reactive tooltip-trigger" cx="497.444444444" cy="257.0" r="2.5"/><desc class="value">20</desc><desc class="x left top">497.444444444</desc><desc class="y left top">257.0</desc></g><g class="dots"><circle class="dot reactive tooltip-trigger" cx="525.329201362" cy="226.205326578" r="2.5"/><desc class="value">25</desc><desc class="x left">525.329201362</desc><desc class="y left">226.205326578</desc></g><g class="dots"><circle class="dot reactive tooltip-trigger" cx="520.183610787" cy="192.75" r="2.5"/><desc class="value">27</desc><desc class="x left">520.183610787</desc><desc class="y left">192.75</desc></g><g class="dots"><circle class="dot reactive tooltip-trigger" cx="481.833222949" cy="172.867387609" r="2.5"/><desc class="value">25</desc><desc class="x left">481.833222949</desc><desc class="y left">172.867387609</desc></g><g class="dots"><circle class="dot reactive tooltip-trigger" cx="430.222222222" cy="174.567211566" r="2.5"/><desc class="value">20</desc><desc class="x left">430.222222222</desc><desc class="y left">174.567211566</desc></g><g class="dots"><circle class="dot reactive tooltip-trigger" cx="409.975656686" cy="132.878531322" r="2.5"/><desc class="value">27</desc><desc class="x left">409.975656686</desc><desc class="y left">132.878531322</desc></g></g></g><g class="plot text-overlay" transform="translate(54, 46)"><g class="series serie-0 color-0"><text class="centered" x="363.0" y="114.222222222">30</text><text class="centered" x="328.20321727" y="165.05817135">20</text><text class="centered" x="228.555555556" y="92.1344231314">40</text><text class="centered" x="125.333554101" y="88.7347752176">50</text><text class="centered" x="130.135391427" y="161.814814815">40</text><text class="centered" x="135.739118093" y="213.887457209">35</text><text class="centered" x="161.333333333" y="257.0">30</text><text class="centered" x="135.739118093" y="300.112542791">35</text><text class="centered" x="217.459619642" y="316.490740741">25</text><text class="centered" x="234.660119215" y="347.863221382">27</text><text class="centered" x="278.972222222" y="360.040985543">25</text><text class="centered" x="328.20321727" y="348.94182865">20</text><text class="centered" x="363.0" y="385.5">27</text><text class="centered" x="397.79678273" y="348.94182865">20</text><text class="centered" x="447.027777778" y="360.040985543">25</text><text class="centered" x="491.339880785" y="347.863221382">27</text><text class="centered" x="479.432304287" y="304.592592593">20</text><text class="centered" x="525.329201362" y="287.794673422">25</text><text class="centered" x="497.444444444" y="257.0">20</text><text class="centered" x="525.329201362" y="226.205326578">25</text><text class="centered" x="520.183610787" y="192.75">27</text><text class="centered" x="481.833222949" y="172.867387609">25</text><text class="centered" x="430.222222222" y="174.567211566">20</text><text class="centered" x="409.975656686" y="132.878531322">27</text></g></g><g class="plot tooltip-overlay" transform="translate(54, 46)"><g id="tooltip" style="opacity: 0" transform="translate(0 0)"><a><rect height="0" id="tooltip-box" rx="5" ry="5" width="0"/><text class="text"><tspan class="label"/><tspan class="value"/></text></a></g></g><text class="title" x="417.0" y="26">Foo</text></g></svg>